<?xml version="1.0" standalone="no"?><!DOCTYPE svg PUBLIC "-//W3C//DTD SVG 1.1//EN" "http://www.w3.org/Graphics/SVG/1.1/DTD/svg11.dtd"><svg t="1543728206111" class="icon" style="" viewBox="0 0 1024 1024" version="1.1" xmlns="http://www.w3.org/2000/svg" p-id="1791" xmlns:xlink="http://www.w3.org/1999/xlink" width="64" height="64"><defs><style type="text/css"></style></defs><path d="M791.2 274.1c0.1-0.2 0.3-0.3 0.4-0.4 0.1-0.2 0.2-0.4 0.3-0.5l1.1-1.3c-0.2 0.3-0.5 0.4-0.7 0.7 0.5-0.7 0.9-1.5 1.5-2.2 1.2-1.7 2.3-3.3 3.4-5.1 1.7-2.8 3.3-5.7 4.7-8.7 0.9-1.8 1.7-3.6 2.5-5.5 1.3-3.3 2.3-6.8 3.2-10.4 0.4-1.7 1-3.3 1.3-5.1 1-5.3 1.7-10.8 1.7-16.5 0-31.1-16.4-58.3-41-73.7L660.2 279.2 515 456.4 369.9 279.2 260.4 145.5c-24.5 15.5-41 42.6-41 73.7 0 21.2 7.9 40.4 20.5 55.6-1-1.2-2.2-2.1-3.2-3.3l-6.8-8.3L451.6 534l63.4 77.4 63.4-77.4 212.8-259.9z m-10.3 10.2c0.3-0.2 0.5-0.4 0.8-0.6-1 0.9-1.9 2-3 2.9 0.8-0.7 1.5-1.6 2.2-2.3z m-15 10.7l0.6-0.3c-1.4 0.8-2.7 1.9-4.2 2.6 1.3-0.7 2.4-1.6 3.6-2.3z m-17.8 7.5c0.1 0 0.3-0.1 0.4-0.1-1.6 0.5-3.1 1.3-4.7 1.7 1.5-0.4 2.8-1.2 4.3-1.6zM515.8 555.2c-18.2 0-33-14.8-33-33s14.8-33 33-33 33 14.8 33 33-14.8 33-33 33zM313.5 524.3c-95.5 0-172.9 77.4-172.9 172.9S218 870.1 313.5 870.1s172.9-77.4 172.9-172.9c0-95.4-77.4-172.9-172.9-172.9z m0 270.4c-53.8 0-97.5-43.7-97.5-97.5s43.7-97.5 97.5-97.5 97.5 43.7 97.5 97.5c0 53.9-43.6 97.5-97.5 97.5zM716.5 524.3c-95.5 0-172.9 77.4-172.9 172.9S621 870.1 716.5 870.1s172.9-77.4 172.9-172.9c0-95.4-77.4-172.9-172.9-172.9z m0 270.4c-53.8 0-97.5-43.7-97.5-97.5s43.7-97.5 97.5-97.5 97.5 43.7 97.5 97.5c0 53.9-43.6 97.5-97.5 97.5z" fill="#0aa8b6" p-id="1792"></path></svg>