<?xml version="1.0" standalone="no"?><!DOCTYPE svg PUBLIC "-//W3C//DTD SVG 1.1//EN" "http://www.w3.org/Graphics/SVG/1.1/DTD/svg11.dtd"><svg t="1543824729145" class="icon" style="" viewBox="0 0 1024 1024" version="1.1" xmlns="http://www.w3.org/2000/svg" p-id="2248" xmlns:xlink="http://www.w3.org/1999/xlink" width="64" height="64"><defs><style type="text/css"></style></defs><path d="M409.6 134.4A19.2 19.2 0 0 0 390.4 153.6v51.2c0 10.5984 8.6016 19.2 19.2 19.2h204.8A19.2 19.2 0 0 0 633.6 204.8V153.6A19.2 19.2 0 0 0 614.4 134.4H409.6z m0-64h204.8c45.9264 0 83.2 37.2736 83.2 83.2v51.2c0 45.9264-37.2736 83.2-83.2 83.2H409.6A83.2 83.2 0 0 1 326.4 204.8V153.6c0-45.9264 37.2736-83.2 83.2-83.2zM153.6 800a19.2 19.2 0 0 0-19.2 19.2v51.2c0 10.5984 8.6016 19.2 19.2 19.2h204.8A19.2 19.2 0 0 0 377.6 870.4v-51.2A19.2 19.2 0 0 0 358.4 800H153.6z m0-64h204.8c45.9264 0 83.2 37.2736 83.2 83.2v51.2c0 45.9264-37.2736 83.2-83.2 83.2H153.6A83.2 83.2 0 0 1 70.4 870.4v-51.2c0-45.9264 37.2736-83.2 83.2-83.2zM665.6 800a19.2 19.2 0 0 0-19.2 19.2v51.2c0 10.5984 8.6016 19.2 19.2 19.2h204.8a19.2 19.2 0 0 0 19.2-19.2v-51.2a19.2 19.2 0 0 0-19.2-19.2h-204.8z m0-64h204.8c45.9264 0 83.2 37.2736 83.2 83.2v51.2c0 45.9264-37.2736 83.2-83.2 83.2h-204.8A83.2 83.2 0 0 1 582.4 870.4v-51.2c0-45.9264 37.2736-83.2 83.2-83.2zM480 480V358.4a32 32 0 1 1 64 0v185.6H358.4c-38.912 0-70.4 31.5392-70.4 70.4v51.2a32 32 0 1 1-64 0v-51.2A134.4 134.4 0 0 1 358.4 480h121.6z" fill="#3363FC" p-id="2249"></path><path d="M512 544a32 32 0 1 1 0-64h153.6A134.4 134.4 0 0 1 800 614.4v51.2a32 32 0 1 1-64 0v-51.2c0-38.912-31.5392-70.4-70.4-70.4h-153.6z" fill="#3363FC" p-id="2250"></path></svg>