<?xml version="1.0" standalone="no"?><!DOCTYPE svg PUBLIC "-//W3C//DTD SVG 1.1//EN" "http://www.w3.org/Graphics/SVG/1.1/DTD/svg11.dtd"><svg t="1543824884144" class="icon" style="" viewBox="0 0 1024 1024" version="1.1" xmlns="http://www.w3.org/2000/svg" p-id="3102" xmlns:xlink="http://www.w3.org/1999/xlink" width="64" height="64"><defs><style type="text/css"></style></defs><path d="M823.23858 447.145923c-16.406668-1.187035-30.197766 12.280698-30.197766 28.730345l0 358.362854c0 39.213094-32.083719 71.296813-71.296813 71.296813L201.803145 905.535935c-38.448684 0-83.201957-32.715099-83.201957-71.223135L118.601188 310.460868c0-38.505989 44.753273-79.538521 83.201957-79.538521l299.31604 0c16.448624 0 29.919427-13.768585 28.779464-30.1773-1.049912-15.115256-13.682627-26.091238-29.151947-26.091238L201.803145 174.653809c-76.840062 0-139.41319 58.793034-139.41319 135.807059l0 523.851932c0 77.016071 62.573127 127.440507 139.41319 127.440507l522.936073 0c76.899414 0 124.45757-50.424436 124.45757-127.440507l0-357.962741C849.196789 460.906322 838.308811 448.235744 823.23858 447.145923z" fill="#206016" p-id="3103"></path><path d="M936.295496 129.618103l-42.744523-42.921555c-32.607652-32.600489-89.851401-32.600489-122.453936 0l-80.853469 95.122451L259.106246 594.617649l0 10.089799-0.343831 1.774413-54.207599 183.821609 39.825031 35.58445 173.968194-61.370743 2.177596 0.461511 8.538467 0 412.285974-431.710372 94.946442-77.645404C970.048227 221.869157 970.048227 163.42814 936.295496 129.618103zM281.166681 749.965763l25.328875-80.738859 50.596352 50.711985L281.166681 749.965763zM408.54886 689.7401l-74.493621-74.54888 385.410883-383.51879 72.085782 72.199369L408.54886 689.7401zM895.552559 211.32808l-57.415664 57.472969-83.660398-83.770915 57.417711-57.475016c5.441942-5.38873 12.662391-8.368598 20.456914-8.368598 7.734148 0 14.95562 2.980891 20.339234 8.368598l42.806945 42.85811C906.786415 181.704388 906.786415 200.039989 895.552559 211.32808z" fill="#206016" p-id="3104"></path></svg>